<?xml version="1.0" encoding="UTF-8"?>
<svg id="Layer_1" data-name="Layer 1" xmlns="http://www.w3.org/2000/svg" width="327.17" height="123.98" viewBox="0 0 327.17 123.98">
  <defs>
    <style>
      .cls-1 {
        fill: #fffff9;
      }

      .cls-2 {
        fill: #b9b9ba;
      }
    </style>
  </defs>
  <g>
    <path class="cls-1" d="M45.94,1.17V30.62c0,21.06-9.16,26.04-21.92,26.04-14.04,0-22.5-6.07-22.5-23.71v-4.59H13.7v3.65c0,11.04,3.53,13.68,10.32,13.68,6.09,0,9.17-3.73,9.17-15.08V1.17h12.75Z"/>
    <path class="cls-1" d="M100.89,28.37c0,22.85-14.29,27.2-28.27,27.2h-20.41V1.17h20.41c13.97,0,28.27,4.27,28.27,27.2Zm-13.01,0c0-14.07-7.24-16.17-16.28-16.17h-6.57V44.53h6.57c9.04,0,16.28-2.18,16.28-16.16Z"/>
    <path class="cls-1" d="M158.41,23.8v31.77h-9.93l-.59-7.98c-3.5,5.73-9,9.06-15.71,9.06-14.36,0-28.46-7.54-28.46-28.29S118.14,0,131.08,0c11.66,0,23.14,5.91,26.09,19.28h-13.14c-1.86-5.13-6.54-8.32-12.95-8.32-9.55,0-14.36,6.68-14.36,17.41s5.64,17.33,15.45,17.33c7.56,0,11.66-4.27,12.95-9.95h-14.1v-11.81h16.87v-.13h10.52Z"/>
    <path class="cls-1" d="M56.66,69.12l-20.77,54.4h-15.13L0,69.12H13.39l14.94,42.9,14.93-42.9h13.4Z"/>
    <path class="cls-1" d="M62.7,105.25c.9,5.28,4.04,9.17,9.94,9.17,5,0,7.56-2.33,8.97-5.59h10.25c-2.18,11.03-10.57,15.15-19.23,15.15-9.81,0-20.51-6.22-20.51-21.84s10.7-21.84,20.51-21.84,20.76,7.07,19.74,24.95h-29.68Zm.45-8.08h18.46c-1.09-4.35-3.78-7.3-8.97-7.3s-8.2,3.03-9.49,7.3Z"/>
    <path class="cls-1" d="M135.3,95.45v27.44h-11.54v-24.33c0-4.59-2.37-8.08-7.56-8.08s-7.76,3.5-7.76,8.08v24.33h-11.54v-41.42h11.54v5.9c1.35-2.41,5.45-7.07,12.56-7.07,8.78,0,14.29,5.83,14.29,15.15Z"/>
    <path class="cls-1" d="M155.99,106.65c0,5.67,2.43,6.76,10,5.59v10.65c-2.37,.39-4.16,.62-6.86,.62-12.63,0-14.68-6.45-14.68-16.86v-16.4h-6.35v-8.78h6.35v-10.81h11.54v10.8h10v8.78h-10v16.4Z"/>
    <path class="cls-1" d="M208.47,81.47v41.42h-11.54v-5.91c-1.35,2.33-5.45,7-12.56,7-8.78,0-14.29-5.75-14.29-15.08v-27.44h11.54v24.25c0,4.59,2.37,8.16,7.56,8.16s7.76-3.5,7.76-8.16v-24.25h11.54Z"/>
    <path class="cls-1" d="M241.47,81v12.59h-.7c-1.28-.78-3.78-1.63-6.8-1.63-7.31,0-7.75,5.36-7.75,11.82v19.12h-11.54v-41.42h11.54v7.15c1.35-2.8,2.94-8.32,10.19-8.32,2.24,0,4.04,.31,5.06,.7Z"/>
    <path class="cls-1" d="M253.56,105.25c.9,5.28,4.04,9.17,9.94,9.17,5,0,7.56-2.33,8.97-5.59h10.25c-2.18,11.03-10.57,15.15-19.23,15.15-9.81,0-20.51-6.22-20.51-21.84s10.7-21.84,20.51-21.84,20.76,7.07,19.74,24.95h-29.68Zm.45-8.08h18.46c-1.09-4.35-3.78-7.3-8.97-7.3s-8.2,3.03-9.49,7.3Z"/>
    <path class="cls-1" d="M327.17,109.75c0,10.03-7.63,14.22-20.57,14.22-13.72,0-20.45-4.97-20.45-14.53l12.18,.08c0,4.66,4.1,5.91,8.97,5.91,5.26,0,7.76-1.09,7.76-4.04,0-3.73-5.77-3.89-13.2-5.28-8.72-1.63-14.68-3.58-14.68-12.05s6.28-13.76,18.84-13.76c13.91,0,19.42,5.98,19.42,13.76l-11.73-.08c0-2.72-2.69-5.21-7.82-5.21s-7.31,1.48-7.31,4.12c0,2.95,5.06,3.5,10.89,4.43,8.78,1.32,17.69,1.87,17.69,12.43Z"/>
  </g>
  <g>
    <polygon class="cls-1" points="177.03 0 177.03 21.09 192.69 28.33 215.49 17.79 177.03 0"/>
    <polygon class="cls-1" points="177.03 35.57 177.03 56.66 215.49 38.87 192.69 28.33 177.03 35.57"/>
    <polygon class="cls-2" points="192.69 28.33 215.49 38.87 215.49 17.79 192.69 28.33"/>
  </g>
</svg>